<?xml version="1.0" encoding="UTF-8"?>
<!DOCTYPE svg PUBLIC "-//W3C//DTD SVG 1.1//EN" "http://www.w3.org/Graphics/SVG/1.1/DTD/svg11.dtd">
<!-- Creator: CorelDRAW -->
<svg xmlns="http://www.w3.org/2000/svg" xml:space="preserve" width="6.72in" height="6.72in" style="shape-rendering:geometricPrecision; text-rendering:geometricPrecision; image-rendering:optimizeQuality; fill-rule:evenodd; clip-rule:evenodd"
viewBox="0 0 6.72 6.72"
 xmlns:xlink="http://www.w3.org/1999/xlink">
 <defs>
  <style type="text/css">
   <![CDATA[
    .fil8 {fill:none}
    .fil3 {fill:url(#id0);fill-rule:nonzero}
    .fil4 {fill:url(#id1);fill-rule:nonzero}
    .fil0 {fill:url(#id2);fill-rule:nonzero}
    .fil7 {fill:url(#id3);fill-rule:nonzero}
    .fil5 {fill:url(#id4);fill-rule:nonzero}
    .fil6 {fill:url(#id5);fill-rule:nonzero}
    .fil1 {fill:url(#id6);fill-rule:nonzero}
    .fil2 {fill:url(#id7);fill-rule:nonzero}
   ]]>
  </style>
  <linearGradient id="id0" gradientUnits="userSpaceOnUse" x1="3.13028" y1="3.09787" x2="5.56947" y2="3.09787">
   <stop offset="0" style="stop-color:#E4877C"/>
   <stop offset="1" style="stop-color:#B03686"/>
  </linearGradient>
  <linearGradient id="id1" gradientUnits="userSpaceOnUse" xlink:href="#id0" x1="3.65625" y1="3.09787" x2="5.04351" y2="3.09787">
  </linearGradient>
  <linearGradient id="id2" gradientUnits="userSpaceOnUse" xlink:href="#id0" x1="2.81396" y1="5.10765" x2="3.90604" y2="5.10765">
  </linearGradient>
  <linearGradient id="id3" gradientUnits="userSpaceOnUse" xlink:href="#id0" x1="1.15056" y1="2.52538" x2="3.00413" y2="2.52538">
  </linearGradient>
  <linearGradient id="id4" gradientUnits="userSpaceOnUse" xlink:href="#id0" x1="3.27462" y1="2.57555" x2="5.42514" y2="2.57555">
  </linearGradient>
  <linearGradient id="id5" gradientUnits="userSpaceOnUse" xlink:href="#id0" x1="3.17782" y1="3.09787" x2="5.56947" y2="3.09787">
  </linearGradient>
  <linearGradient id="id6" gradientUnits="userSpaceOnUse" xlink:href="#id0" x1="2.04196" y1="5.36979" x2="4.67804" y2="5.36979">
  </linearGradient>
  <linearGradient id="id7" gradientUnits="userSpaceOnUse" xlink:href="#id0" x1="0.8" y1="3.09785" x2="5.92" y2="3.09785">
  </linearGradient>
 </defs>
 <g id="Layer_x0020_1">
  <metadata id="CorelCorpID_0Corel-Layer"/>
  <path class="fil0" d="M2.89396 4.7655l0.932079 0c0.0441811,0 0.08,0.0358189 0.08,0.08l0 0.524291c0,0.0441811 -0.0358189,0.08 -0.08,0.08l-0.932079 0c-0.0441811,0 -0.08,-0.0358189 -0.08,-0.08l0 -0.524291c0,-0.0441811 0.0358189,-0.08 0.08,-0.08zm0.852079 0.16l-0.772079 0 0 0.364291 0.772079 0 0 -0.364291z"/>
  <path class="fil1" d="M2.12196 5.28979c-0.0441811,0 -0.08,0.0358189 -0.08,0.08 0,0.0441811 0.0358189,0.08 0.08,0.08l2.47607 0c0.0441811,0 0.08,-0.0358189 0.08,-0.08 0,-0.0441811 -0.0358189,-0.08 -0.08,-0.08l-2.47607 0z"/>
  <path class="fil2" d="M0.88 1.2702l4.96 0c0.0441811,0 0.08,0.0358189 0.08,0.08l0 3.4953c0,0.0441811 -0.0358189,0.08 -0.08,0.08l-4.96 0c-0.0441811,0 -0.08,-0.0358189 -0.08,-0.08l0 -3.4953c0,-0.0441811 0.0358189,-0.08 0.08,-0.08zm4.88 0.16l-4.8 0 0 3.3353 4.8 0 0 -3.3353z"/>
  <path class="fil3" d="M4.34988 1.87827c0.336772,0 0.641677,0.136512 0.862378,0.357217 0.220705,0.220701 0.357217,0.525606 0.357217,0.862378 0,0.336772 -0.136516,0.641673 -0.357217,0.862378 -0.220701,0.220701 -0.525606,0.357217 -0.862378,0.357217 -0.336772,0 -0.641677,-0.136516 -0.862378,-0.357217 -0.220701,-0.220705 -0.357217,-0.525606 -0.357217,-0.862378 0,-0.336772 0.136512,-0.641677 0.357217,-0.862378 0.220701,-0.220705 0.525606,-0.357217 0.862378,-0.357217zm0.749252 0.470343c-0.19174,-0.191744 -0.456646,-0.310343 -0.749252,-0.310343 -0.292602,0 -0.557512,0.118598 -0.749252,0.310343 -0.191744,0.19174 -0.310343,0.456646 -0.310343,0.749252 0,0.292602 0.118602,0.557508 0.310343,0.749252 0.19174,0.19174 0.45665,0.310343 0.749252,0.310343 0.292602,0 0.557512,-0.118602 0.749252,-0.310343 0.19174,-0.191744 0.310343,-0.45665 0.310343,-0.749252 0,-0.292606 -0.118598,-0.557512 -0.310343,-0.749252z"/>
  <path class="fil4" d="M4.34988 1.87827c0.201177,0 0.379138,0.143681 0.504213,0.375969 0.117031,0.217339 0.189417,0.515728 0.189417,0.843626 0,0.327898 -0.0723898,0.626283 -0.189417,0.843626 -0.125079,0.232283 -0.303035,0.375969 -0.504213,0.375969 -0.201177,0 -0.379134,-0.143681 -0.504209,-0.375969 -0.117031,-0.217339 -0.189417,-0.515728 -0.189417,-0.843626 0,-0.327902 0.0723858,-0.626287 0.189417,-0.843626 0.125075,-0.232291 0.303031,-0.375969 0.504209,-0.375969zm0.363591 0.451591c-0.0970039,-0.180154 -0.225874,-0.291591 -0.363591,-0.291591 -0.137717,0 -0.266583,0.111433 -0.363587,0.291591 -0.105059,0.195102 -0.170039,0.466524 -0.170039,0.768004 0,0.301476 0.0649803,0.572902 0.170039,0.768004 0.0970039,0.180154 0.22587,0.291591 0.363587,0.291591 0.13772,0 0.266583,-0.111437 0.363591,-0.291591 0.105055,-0.195106 0.170039,-0.466528 0.170039,-0.768004 0,-0.301476 -0.0649803,-0.572902 -0.170039,-0.768004z"/>
  <path class="fil5" d="M3.35462 2.49555c-0.0441811,0 -0.08,0.0358189 -0.08,0.08 0,0.0441811 0.0358189,0.08 0.08,0.08l1.99052 0c0.0441811,0 0.08,-0.0358189 0.08,-0.08 0,-0.0441811 -0.0358189,-0.08 -0.08,-0.08l-1.99052 0z"/>
  <path class="fil6" d="M3.25782 3.01787c-0.0441811,0 -0.08,0.0358189 -0.08,0.08 0,0.0441811 0.0358189,0.08 0.08,0.08l2.23165 0c0.0441811,0 0.08,-0.0358189 0.08,-0.08 0,-0.0441811 -0.0358189,-0.08 -0.08,-0.08l-2.23165 0z"/>
  <path class="fil5" d="M3.35462 3.54018c-0.0441811,0 -0.08,0.0358189 -0.08,0.08 0,0.0441811 0.0358189,0.08 0.08,0.08l1.99052 0c0.0441811,0 0.08,-0.0358189 0.08,-0.08 0,-0.0441811 -0.0358189,-0.08 -0.08,-0.08l-1.99052 0z"/>
  <path class="fil7" d="M1.23056 2.44538c-0.0441811,0 -0.08,0.0358189 -0.08,0.08 0,0.0441811 0.0358189,0.08 0.08,0.08l1.69356 0c0.0441811,0 0.08,-0.0358189 0.08,-0.08 0,-0.0441811 -0.0358189,-0.08 -0.08,-0.08l-1.69356 0z"/>
  <path class="fil7" d="M1.23056 3.01785c-0.0441811,0 -0.08,0.0358189 -0.08,0.08 0,0.0441811 0.0358189,0.08 0.08,0.08l1.69356 0c0.0441811,0 0.08,-0.0358189 0.08,-0.08 0,-0.0441811 -0.0358189,-0.08 -0.08,-0.08l-1.69356 0z"/>
  <path class="fil7" d="M1.23056 3.59032c-0.0441811,0 -0.08,0.0358189 -0.08,0.08 0,0.0441811 0.0358189,0.08 0.08,0.08l1.69356 0c0.0441811,0 0.08,-0.0358189 0.08,-0.08 0,-0.0441811 -0.0358189,-0.08 -0.08,-0.08l-1.69356 0z"/>
 </g>
 <rect class="fil8" width="6.72" height="6.72"/>
</svg>
